<svg width="306" height="92" viewBox="0 0 306 92" fill="none" xmlns="http://www.w3.org/2000/svg">
<path d="M-0.0765381 70.7186C3.66675 71.0433 11.2173 71.5401 16.1977 70.8883C19.2435 70.4897 23.2883 69.5873 34.7125 64.9487C46.1366 60.3102 64.8039 51.8694 77.3422 45.8166C89.8805 39.7639 95.7242 36.3551 100.195 33.4628C107.768 28.5645 112.547 24.0086 115.985 20.3268C118.739 17.3779 119.453 14.4906 119.209 11.8762C118.61 5.43867 114.701 3.33447 113.885 2.43431C113.453 1.9585 112.744 1.69647 111.922 1.93504C111.101 2.17361 110.127 2.98523 109.625 3.72798C109.123 4.47074 109.123 5.12004 110.341 6.50963C111.558 7.89922 113.993 10.0094 116.221 11.1777C118.45 12.3459 120.397 12.5082 124.972 11.8614C136.76 10.1947 144.697 8.24846 145.599 8.57311C146.52 8.90417 147.633 17.0336 152.129 28.7431C154.08 33.824 157.112 36.3945 170.219 40.9002C183.325 45.4059 206.862 51.5742 220.854 54.9953C234.846 58.4164 238.579 58.9034 242.694 58.8296C246.808 58.7558 251.191 58.1065 252.881 57.772C253.515 57.6465 251.614 58.7362 250.63 61.5965C249.536 64.7776 251.919 69.543 255.434 74.8603C258.892 80.0931 263.72 83.493 268.297 86.1935C270.675 87.5964 273.523 88.407 277.948 88.9088C288.324 90.0854 296.839 89.7351 301.175 90.227C303.232 90.4604 305.024 90.3943 305.944 89.9073C306.863 89.4203 306.863 88.4464 306.945 87.7012C307.026 86.9559 307.188 86.469 308.339 84.9835" stroke="white" stroke-width="2" stroke-linecap="round" stroke-dasharray="4 4"/>
</svg>
