<svg width="306" height="90" viewBox="0 0 306 90" fill="none" xmlns="http://www.w3.org/2000/svg">
<path d="M0 69.4752C5.66805 69.7979 17.101 70.2919 24.6423 69.6439C29.2541 69.2476 35.3788 68.3503 52.6772 63.7386C69.9755 59.1269 98.2413 50.7348 117.227 44.7171C136.212 38.6994 145.06 35.3102 151.831 32.4346C163.297 27.5647 170.533 23.0351 175.739 19.3746C179.909 16.4427 180.99 13.5721 180.622 10.9728C179.714 4.57247 173.796 2.48044 172.559 1.58548C171.906 1.11242 170.831 0.851906 169.587 1.08909C168.343 1.32628 166.869 2.13321 166.109 2.87168C165.349 3.61014 165.349 4.25568 167.193 5.63724C169.036 7.0188 172.723 9.11682 176.097 10.2783C179.471 11.4398 182.42 11.6012 189.347 10.9581C207.196 9.30097 219.214 7.36603 220.581 7.6888C221.975 8.01795 223.661 16.1004 230.469 27.7422C233.423 32.7938 238.014 35.3494 257.859 39.8291C277.705 44.3087 313.344 50.4414 334.531 53.8427C355.717 57.2441 361.37 57.7282 367.601 57.6549C373.831 57.5815 380.467 56.936 383.026 56.6034C383.986 56.4786 381.108 57.5619 379.618 60.4058C377.961 63.5685 381.57 68.3063 386.891 73.5929C392.128 78.7955 399.438 82.1757 406.368 84.8606C409.969 86.2554 414.282 87.0613 420.982 87.5602C436.693 88.73 449.586 88.3818 456.152 88.8708C459.267 89.1028 461.98 89.0371 463.373 88.5529C464.766 88.0688 464.766 87.1005 464.888 86.3596C465.011 85.6186 465.257 85.1345 467 83.6576" stroke="white" stroke-width="2" stroke-linecap="round" stroke-dasharray="4 4"/>
</svg>
