<svg width="303" height="28" viewBox="0 0 303 28" fill="none" xmlns="http://www.w3.org/2000/svg">
<path d="M-2 1C11.8075 1 22.8038 1.90673 35.4835 3.28057C44.2447 4.22983 57.8717 3.74767 76.1999 3.29431C94.5282 2.84094 117.181 1.93421 134.568 1.92047C151.955 1.90673 163.389 2.81347 173.702 4.41399C184.015 6.01451 192.861 8.28134 197.957 11.0359C203.053 13.7904 204.132 16.964 203.932 19.5056C203.733 22.0472 202.223 23.8607 199.934 25.0215C194.958 27.5464 190.651 27.1029 189.343 26.6495C188.755 26.4456 188.899 25.2894 189.654 23.9156C194.385 15.3072 205.858 10.8642 217.566 8.00314C225.25 6.12564 237.042 6.7289 244.23 6.72547C253.794 6.7209 258.394 7.86232 264.467 9.34606C268.383 10.1498 273.993 11.0565 280.55 11.2969C287.107 11.5373 294.442 11.084 302 10.6169" stroke="white" stroke-width="2" stroke-linecap="round" stroke-dasharray="4 4"/>
</svg>
